<svg width="219" height="218" viewBox="0 0 219 218" fill="none" xmlns="http://www.w3.org/2000/svg">
<path d="M112.636 72.9675L109.343 29.8497L105.894 72.9675H112.636Z" fill="#FFFF00"/>
<path d="M117.183 74.2218L136.625 78.612L117.183 83.159V74.2218Z" fill="#FFFF00"/>
<path d="M102.444 74.2218L82.8454 78.612L102.444 83.159V74.2218Z" fill="#FFFF00"/>
<path d="M114.674 83.159L109.5 180.056L104.483 83.159H114.674Z" fill="#FFFF00"/>
<path d="M112.636 72.9675L109.343 29.8497L105.894 72.9675H112.636Z" stroke="#FEC000"/>
<path d="M117.183 74.2218L136.625 78.612L117.183 83.159V74.2218Z" stroke="#FEC000"/>
<path d="M102.444 74.2218L82.8454 78.612L102.444 83.159V74.2218Z" stroke="#FEC000"/>
<path d="M114.674 83.159L109.5 180.056L104.483 83.159H114.674Z" stroke="#FEC000"/>
<path fill-rule="evenodd" clip-rule="evenodd" d="M1 187.582L109.186 1L218 187.582H1ZM109.186 13.5434L12.4458 180.997H206.868L109.186 13.5434Z" fill="#0437B5" stroke="#0337A5"/>
<circle cx="22.6373" cy="175.039" r="4.23338" fill="#0437B5"/>
<circle cx="109.5" cy="23.578" r="4.23338" fill="#0437B5"/>
<path d="M108.873 181.467L77.5144 133.489L72.0267 138.35L108.873 181.467Z" fill="#0437B5"/>
<path d="M109.5 182.095L147.6 138.35L141.486 133.489L109.5 182.095Z" fill="#0437B5"/>
<path d="M108.873 181.467L77.5144 133.489L72.0267 138.35L108.873 181.467Z" stroke="#0337A5"/>
<path d="M109.5 182.095L147.6 138.35L141.486 133.489L109.5 182.095Z" stroke="#0337A5"/>
<path d="M109.186 181.311L81.9046 122.043L73.4379 127.217L109.186 181.311Z" fill="#FF9935"/>
<path d="M109.295 183.735C111.049 180.433 133.594 145.142 145.092 127.217L137.095 122.043L109.295 183.735Z" fill="#FF9935"/>
<path d="M88.9602 113.42L109.5 181.938L80.1799 117.34L88.9602 113.42Z" fill="#FEC000"/>
<path d="M130.04 113.42L138.82 117.34L109.5 183.506L130.04 113.42Z" fill="#FEC000"/>
<path d="M88.9602 113.42L109.5 181.938L80.1799 117.34L88.9602 113.42Z" stroke="#0337A5"/>
<path d="M130.04 113.42L138.82 117.34L109.5 183.506L130.04 113.42Z" stroke="#0337A5"/>
<circle cx="195.736" cy="175.039" r="4.23338" fill="#0437B5"/>
<path fill-rule="evenodd" clip-rule="evenodd" d="M109.343 56.9155C109.895 56.9155 110.343 57.3632 110.343 57.9155V67.6583C111.222 67.7142 112.072 67.8764 112.88 68.1324L116.901 59.3795C117.132 58.8776 117.726 58.6577 118.227 58.8883C118.729 59.1189 118.949 59.7126 118.719 60.2145L114.722 68.914C115.344 69.2507 115.929 69.6476 116.469 70.0968L122.729 63.4989C123.109 63.0982 123.742 63.0816 124.143 63.4617C124.543 63.8418 124.56 64.4748 124.18 64.8754L117.882 71.5139C118.387 72.126 118.826 72.7954 119.186 73.511L126.521 70.4756C127.032 70.2644 127.617 70.5069 127.828 71.0172C128.039 71.5276 127.797 72.1124 127.286 72.3236L119.913 75.3747C120.172 76.2857 120.313 77.2464 120.318 78.2392H128.785C129.338 78.2392 129.785 78.6869 129.785 79.2392C129.785 79.7915 129.338 80.2392 128.785 80.2392H120.142C120.009 80.965 119.802 81.665 119.529 82.3314L125.86 86.2271C126.33 86.5166 126.477 87.1325 126.188 87.6029C125.898 88.0732 125.282 88.2199 124.812 87.9304L118.599 84.1071C118.115 84.8498 117.542 85.5285 116.894 86.1278L122.017 92.0703C122.377 92.4886 122.331 93.1201 121.912 93.4807C121.494 93.8413 120.863 93.7945 120.502 93.3762L115.302 87.3446C114.702 87.7203 114.061 88.0378 113.388 88.2893L116.237 95.8188C116.432 96.3354 116.172 96.9125 115.655 97.108C115.139 97.3034 114.561 97.0431 114.366 96.5266L111.446 88.8107C110.865 88.9091 110.267 88.9603 109.657 88.9603C109.273 88.9603 108.893 88.94 108.519 88.9003L108.147 96.535C108.12 97.0866 107.651 97.512 107.099 97.4851C106.548 97.4582 106.122 96.9892 106.149 96.4376L106.537 88.4965C105.886 88.2977 105.262 88.0383 104.671 87.725L101.157 95.3374C100.926 95.8389 100.332 96.0578 99.8302 95.8263C99.3287 95.5949 99.1098 95.0008 99.3413 94.4993L102.981 86.6124C102.44 86.1771 101.942 85.69 101.495 85.1587L94.9743 91.2585C94.571 91.6358 93.9382 91.6147 93.5609 91.2114C93.1836 90.808 93.2047 90.1752 93.608 89.7979L100.345 83.4955C100.068 83.0005 99.8297 82.4811 99.6335 81.9414L91.1388 84.5842C90.6114 84.7483 90.0509 84.4538 89.8868 83.9264C89.7228 83.3991 90.0173 82.8386 90.5446 82.6745L99.1305 80.0033C99.0412 79.4482 98.9949 78.8787 98.9949 78.2984L98.9951 78.2285L89.746 76.7777C89.2004 76.6921 88.8275 76.1804 88.913 75.6348C88.9986 75.0892 89.5103 74.7162 90.0559 74.8018L99.1943 76.2353C99.3099 75.6458 99.4741 75.0736 99.6825 74.5233L91.5414 69.0958C91.0818 68.7894 90.9577 68.1686 91.264 67.709C91.5704 67.2495 92.1912 67.1253 92.6508 67.4317L100.573 72.7132C100.981 72.0512 101.459 71.4371 101.998 70.8814L96.039 63.8953C95.6806 63.4752 95.7307 62.844 96.1508 62.4856C96.571 62.1272 97.2022 62.1773 97.5606 62.5975L103.517 69.5808C103.88 69.3245 104.26 69.0904 104.655 68.8804L102.111 60.0745C101.958 59.5439 102.263 58.9895 102.794 58.8363C103.325 58.683 103.879 58.9889 104.032 59.5194L106.513 68.1076C107.103 67.9258 107.715 67.7939 108.343 67.7167V57.9155C108.343 57.3632 108.791 56.9155 109.343 56.9155Z" fill="#22A8E9"/>
<path d="M55.7476 213.326C53.7186 213.326 51.9591 212.936 50.4692 212.158C48.9868 211.379 47.8413 210.267 47.0327 208.822C46.2241 207.377 45.8198 205.659 45.8198 203.667C45.8198 202.237 46.0295 200.972 46.4487 199.872C46.8755 198.771 47.4595 197.843 48.2007 197.086C48.9494 196.33 49.8066 195.761 50.7725 195.379C51.7383 194.99 52.764 194.795 53.8496 194.795C54.9876 194.795 55.9722 194.975 56.8032 195.334C57.6343 195.694 58.3193 196.218 58.8584 196.907L59.4312 195.121H62.5195V202.556H58.4204C58.3605 201.118 58.076 200.126 57.5669 199.58C57.0653 199.033 56.4064 198.76 55.5903 198.76C54.9914 198.76 54.4299 198.928 53.9058 199.265C53.3892 199.602 52.9699 200.119 52.6479 200.815C52.3335 201.511 52.1763 202.402 52.1763 203.488C52.1763 205.09 52.5918 206.318 53.4229 207.171C54.2614 208.017 55.4368 208.44 56.9492 208.44C57.8402 208.44 58.7124 208.291 59.5659 207.991C60.4194 207.692 61.2131 207.231 61.9468 206.61L62.25 206.745V211.484C61.3815 212.12 60.3558 212.588 59.1729 212.888C57.9974 213.18 56.8556 213.326 55.7476 213.326ZM65.6515 213V209.125H67.4484V198.996H65.6515V195.121H81.5538V202.23H77.8478L77.4547 198.939H73.1534V201.972H76.1857V205.79H73.1534V209.182H77.4547L77.8478 205.397H81.5538V213H65.6515ZM94.5911 213.326C92.0679 213.326 90.1101 212.689 88.7175 211.417C87.3324 210.144 86.6399 208.107 86.6399 205.307V198.996H84.843V195.121H94.3328V198.996H92.4797V205.318C92.4797 207.684 93.4605 208.867 95.4221 208.867C96.358 208.867 97.0543 208.56 97.511 207.946C97.9752 207.332 98.2073 206.456 98.2073 205.318V198.996H96.3542V195.121H103.755V198.996H101.958V205.756C101.958 210.803 99.5025 213.326 94.5911 213.326ZM106.393 213V209.125H108.19V198.996H106.393V195.121H116.085C118.481 195.121 120.289 195.533 121.509 196.356C122.737 197.18 123.351 198.408 123.351 200.04C123.351 200.901 123.138 201.665 122.711 202.331C122.292 202.997 121.681 203.507 120.88 203.858C121.741 204.203 122.419 204.723 122.913 205.419C123.407 206.108 123.654 206.936 123.654 207.901C123.654 209.541 123.055 210.803 121.857 211.686C120.659 212.562 118.945 213 116.714 213H106.393ZM115.4 198.883H113.895V202.32H115.4C116.792 202.32 117.489 201.747 117.489 200.602C117.489 199.456 116.792 198.883 115.4 198.883ZM113.895 209.238H115.636C117.073 209.238 117.792 208.605 117.792 207.34C117.792 206.075 117.073 205.442 115.636 205.442H113.895V209.238ZM126.55 213V209.125H128.347V198.996H126.55V195.121H142.453V202.23H138.747L138.353 198.939H134.052V201.972H137.084V205.79H134.052V209.182H138.353L138.747 205.397H142.453V213H126.55ZM145.921 213V209.125H147.718V198.996H145.921V195.121H155.029L158.814 204.892L162.722 195.121H170.954V198.996H169.157V209.125H170.954V213H161.936V209.125H163.508V201.691L159.039 213H155.849L151.379 201.691V209.125H152.952V213H145.921Z" fill="#22A8E9"/>
</svg>
